<svg width="429" height="84.77689864983579" viewBox="0 0 370.18518518518516 73.15420029397467" class="looka-1j8o68f"><defs id="SvgjsDefs1197"></defs><g id="SvgjsG1198" featurekey="HdFLvg-0" transform="matrix(0.148345485329628,0,0,0.148345485329628,-5.569187111834522,-1.3996396653071521)" fill="#222831"><g xmlns="http://www.w3.org/2000/svg"><path d="M182.495,204.306c-10.234,0-18.562,8.325-18.564,18.559c0,10.257,8.328,18.602,18.564,18.602   c10.236,0,18.563-8.345,18.563-18.602C201.058,212.632,192.731,204.306,182.495,204.306z M182.495,225.467   c-1.414,0-2.564-1.167-2.564-2.6c0-1.412,1.15-2.561,2.564-2.561c1.413,0,2.563,1.148,2.563,2.559   C185.058,224.3,183.908,225.467,182.495,225.467z"></path><path d="M320.574,248.144c10.233,0,18.559-8.335,18.559-18.58c0-10.248-8.325-18.585-18.559-18.585   c-10.256,0-18.601,8.336-18.603,18.585C301.972,239.809,310.316,248.144,320.574,248.144z M320.574,226.979   c1.411,0,2.559,1.16,2.559,2.585c0,1.423-1.147,2.58-2.559,2.58c-1.435,0-2.603-1.157-2.603-2.579   C317.972,228.139,319.14,226.979,320.574,226.979z"></path><path d="M278.486,325.886c0-10.242-8.348-18.575-18.607-18.575c-10.233,0-18.559,8.333-18.559,18.575   c0,10.245,8.326,18.58,18.559,18.58C270.139,344.466,278.486,336.131,278.486,325.886z M259.879,328.466   c-1.411,0-2.56-1.157-2.56-2.58c0-1.42,1.148-2.575,2.56-2.575c1.438,0,2.607,1.155,2.607,2.575   C262.486,327.309,261.316,328.466,259.879,328.466z"></path><path d="M464.246,453.713H398.2c45.28-23.663,76.26-71.085,76.26-125.611c0-57.948-34.999-107.869-84.97-129.771   c5.254-14.794,8.124-30.707,8.124-47.28C397.614,72.963,334.086,9.435,256,9.435S114.386,72.963,114.386,151.051   c0,16.57,2.869,32.48,8.121,47.271c-49.967,21.897-84.965,71.823-84.965,129.779c0,54.526,30.971,101.948,76.237,125.611H47.715   c-4.418,0-8,3.582-8,8s3.582,8,8,8h129.364c0.692,0.01,1.383,0.026,2.077,0.026s1.385-0.017,2.077-0.026h149.494   c0.692,0.01,1.383,0.026,2.077,0.026s1.386-0.017,2.078-0.026h129.363c4.418,0,8-3.582,8-8S468.664,453.713,464.246,453.713z    M458.46,328.102c0,68.583-55.248,124.498-123.58,125.611h-4.15c-22.146-0.361-42.916-6.479-60.876-16.926   c31.096-26.002,50.913-65.07,50.913-108.686c0-16.563-2.867-32.467-8.116-47.253c30.799-13.499,55.907-37.647,70.64-67.767   C427.509,232.555,458.46,276.779,458.46,328.102z M207.193,328.102c0-14.425,2.421-28.476,7.06-41.696   c13.202,4.082,27.222,6.284,41.747,6.284c14.491,0,28.479-2.192,41.654-6.256c4.6,13.046,7.112,27.068,7.112,41.668   c0,40.357-19.128,76.326-48.787,99.328C226.321,404.428,207.193,368.459,207.193,328.102z M243.989,239.275   c3.786-3.786,7.772-7.297,11.933-10.53c14.763,11.434,26.918,26.077,35.41,42.877c-11.213,3.293-23.068,5.067-35.332,5.067   c-12.305,0-24.199-1.787-35.446-5.102C226.508,259.791,234.373,248.891,243.989,239.275z M205.442,266.051   c-26.674-11.777-48.507-32.571-61.616-58.501c11.212-3.292,23.067-5.066,35.33-5.066c22.897,0,44.381,6.163,62.887,16.912   c-3.226,2.703-6.355,5.554-9.367,8.565C221.386,239.25,212.246,252.114,205.442,266.051z M269.796,219.382   c18.937-11.018,40.52-16.898,63.009-16.898c12.275,0,24.143,1.777,35.366,5.073c-13.126,25.961-34.999,46.772-61.719,58.541   C297.624,248.046,285.07,232.14,269.796,219.382z M130.386,151.051c0-69.265,56.35-125.616,125.614-125.616   s125.614,56.351,125.614,125.616c0,14.61-2.515,28.642-7.12,41.695c-13.186-4.067-27.186-6.262-41.689-6.262   c-27.706,0-54.193,7.914-76.898,22.657c-22.128-14.327-48.484-22.657-76.75-22.657c-14.491,0-28.478,2.192-41.653,6.254   C132.9,179.687,130.386,165.658,130.386,151.051z M53.542,328.102c0-51.33,30.95-95.56,75.164-115.028   c14.716,30.091,39.789,54.224,70.545,67.732c-5.296,14.988-8.059,30.93-8.059,47.296c0,43.615,19.818,82.684,50.914,108.686   c-17.959,10.447-38.729,16.564-60.875,16.926h-4.149C108.771,452.6,53.542,396.685,53.542,328.102z M244.531,453.713   c3.927-2.053,7.748-4.282,11.449-6.683c3.702,2.4,7.522,4.63,11.45,6.683H244.531z"></path><path d="M374.666,486.569H137.297c-4.418,0-8,3.582-8,8s3.582,8,8,8h237.369c4.418,0,8-3.582,8-8S379.084,486.569,374.666,486.569z   "></path></g></g><g id="SvgjsG1199" featurekey="VomJeJ-0" transform="matrix(2.9261763095855713,0,0,2.9261763095855713,82.89314948449957,-6.450211532993874)" fill="#ffffff"><path d="M8.66 11.78 l0 -0.24 q0 -2.96 -2.2 -2.96 q-1.26 0 -1.82 1.15 t-0.56 3.39 q0 2.22 0.7 3.3 t2.04 1.08 q0.7 0 1.55 -0.33 t1.85 -1.05 q0.5 0.34 0.93 0.93 t0.53 1.13 q-0.46 0.44 -1.07 0.83 t-1.32 0.67 t-1.48 0.45 t-1.55 0.17 q-1.54 0 -2.6 -0.59 t-1.71 -1.57 t-0.94 -2.26 t-0.29 -2.66 q0 -1.8 0.45 -3.15 t1.22 -2.25 t1.81 -1.35 t2.22 -0.45 q1.2 0 2.18 0.32 t1.67 0.88 t1.06 1.32 t0.37 1.64 q0 1.78 -1.82 1.78 q-0.54 0 -1.22 -0.18 z M16.98 12.32 l0 7.68 q-0.34 0.06 -0.74 0.09 t-0.82 0.03 t-0.83 -0.03 t-0.75 -0.09 l0 -6.62 q0 -1.16 -0.94 -1.16 l-0.3 0 q-0.12 -0.38 -0.12 -1.06 q0 -0.66 0.12 -1.12 q0.52 -0.04 0.96 -0.07 t0.8 -0.03 l0.44 0 q1.02 0 1.6 0.64 t0.58 1.74 z M13.48 6 q0.58 -0.32 1.5 -0.32 q0.94 0 1.46 0.32 q0.24 0.54 0.24 1.16 t-0.24 1.16 q-0.58 0.3 -1.52 0.3 t-1.44 -0.3 q-0.24 -0.54 -0.24 -1.16 t0.24 -1.16 z M18.740000000000002 11.46 q0.1 -0.4 0.38 -0.89 t0.56 -0.71 q1.84 0.14 2.56 1.82 q0.76 -1.8 2.5 -1.8 q0.52 0 1.32 0.16 q0 0.62 -0.21 1.47 t-0.57 1.45 q-0.34 -0.12 -1.02 -0.2 q-1 0 -1.64 1.02 l0 6.22 q-0.66 0.12 -1.55 0.12 t-1.57 -0.12 l0 -6.46 q0 -1.5 -0.76 -2.08 z M31.96 14.440000000000001 l0 -0.26 q0 -1.12 -0.24 -1.63 t-0.9 -0.51 q-0.7 0 -0.98 0.69 t-0.28 2.29 q0 0.8 0.11 1.34 t0.32 0.87 t0.53 0.48 t0.76 0.15 q0.46 0 1.02 -0.2 t1.2 -0.64 q0.18 0.1 0.37 0.29 t0.35 0.43 t0.28 0.51 t0.18 0.51 q-0.66 0.7 -1.72 1.12 t-2.16 0.42 q-2.14 0 -3.28 -1.4 t-1.14 -3.98 q0 -1.32 0.37 -2.3 t0.98 -1.62 t1.4 -0.96 t1.65 -0.32 q0.88 0 1.61 0.24 t1.26 0.68 t0.82 1.05 t0.29 1.35 q0 0.84 -0.49 1.18 t-1.21 0.34 q-0.6 0 -1.1 -0.12 z M40.38 17.72 l0.54 0 q0.24 0.66 0.24 1.32 t-0.06 0.86 q-1.2 0.2 -2.14 0.2 q-1.36 0 -1.93 -0.67 t-0.57 -2.11 l0 -11.9 l0.12 -0.14 l1.22 0 q0.94 0 1.32 0.42 t0.38 1.46 l0 9.62 q0 0.94 0.88 0.94 z M50.31999999999999 16.02 l-5.22 0 q0.04 0.9 0.46 1.4 t1.38 0.5 q0.48 0 1.11 -0.14 t1.45 -0.46 q0.66 0.68 0.82 1.84 q-1.6 1.14 -3.92 1.14 q-1.26 0 -2.11 -0.4 t-1.38 -1.12 t-0.75 -1.7 t-0.22 -2.14 q0 -1.12 0.27 -2.07 t0.82 -1.65 t1.4 -1.1 t1.99 -0.4 q0.96 0 1.73 0.32 t1.31 0.88 t0.83 1.34 t0.29 1.7 q0 1.22 -0.26 2.06 z M45.08 13.86 l2.64 0 l0 -0.22 q0 -0.74 -0.33 -1.22 t-0.99 -0.48 q-0.64 0 -0.95 0.45 t-0.37 1.47 z M51.67999999999999 19.32 q0.02 -0.52 0.27 -1.14 t0.59 -0.98 q1.6 0.84 2.78 0.84 q0.56 0 0.86 -0.19 t0.3 -0.51 q0 -0.6 -0.92 -0.9 l-1.1 -0.42 q-2.5 -0.92 -2.5 -3 q0 -1.52 1.05 -2.41 t2.83 -0.89 q0.88 0 1.94 0.25 t1.74 0.59 q0.04 0.56 -0.22 1.23 t-0.64 0.95 q-1.68 -0.76 -2.8 -0.76 q-0.4 0 -0.61 0.18 t-0.21 0.46 q0 0.48 0.76 0.76 l1.24 0.44 q2.66 0.94 2.66 3.22 q0 1.5 -1.1 2.38 t-3.14 0.88 t-3.78 -0.98 z M69.38 17.14 q-0.54 0 -0.8 -0.02 l-0.86 2.9 q-0.48 0.12 -1.34 0.12 q-0.96 0 -1.56 -0.22 l-0.1 -0.16 l4.4 -13.42 q0.78 -0.12 1.82 -0.12 q1.18 0 1.88 0.14 l4.32 13.44 q-0.7 0.38 -1.58 0.38 q-1.04 0 -1.46 -0.36 t-0.72 -1.38 l-0.38 -1.32 q-0.26 0.02 -0.78 0.02 l-2.84 0 z M69.32 14.620000000000001 l0.8 -0.02 l1.46 0 q0.1 0 0.35 0.01 t0.37 0.01 l-0.34 -1.24 q-0.48 -1.68 -1.1 -4.12 l-0.12 0 q-0.16 0.86 -0.96 3.82 z M83.39999999999999 20.2 q-0.92 0 -1.84 -0.42 l0 2.66 q0 1.04 -0.38 1.46 t-1.34 0.42 l-1.2 0 l-0.14 -0.14 l0 -14.16 l0.14 -0.14 l0.82 0 q1.14 0 1.7 0.98 q1.14 -1.14 2.78 -1.14 q0.84 0 1.48 0.37 t1.09 1.05 t0.68 1.64 t0.23 2.16 t-0.31 2.18 t-0.85 1.66 t-1.27 1.05 t-1.59 0.37 z M83.02 12.219999999999999 q-0.84 0 -1.46 0.8 l0 4.4 q0.76 0.46 1.3 0.46 q1.36 0 1.36 -3.02 q0 -2.64 -1.2 -2.64 z M94.16 20.2 q-0.92 0 -1.84 -0.42 l0 2.66 q0 1.04 -0.38 1.46 t-1.34 0.42 l-1.2 0 l-0.14 -0.14 l0 -14.16 l0.14 -0.14 l0.82 0 q1.14 0 1.7 0.98 q1.14 -1.14 2.78 -1.14 q0.84 0 1.48 0.37 t1.09 1.05 t0.68 1.64 t0.23 2.16 t-0.31 2.18 t-0.85 1.66 t-1.27 1.05 t-1.59 0.37 z M93.78 12.219999999999999 q-0.84 0 -1.46 0.8 l0 4.4 q0.76 0.46 1.3 0.46 q1.36 0 1.36 -3.02 q0 -2.64 -1.2 -2.64 z"></path></g></svg>